<svg width="16" height="16" viewBox="0 0 16 16" fill="none" xmlns="http://www.w3.org/2000/svg">
<g id="teenyicons:github-solid" clip-path="url(#clip0_7539_102)">
<path id="Vector" d="M9.98516 2.28927C8.68129 1.98629 7.32531 1.98629 6.02143 2.28927C5.26836 1.82741 4.69343 1.61514 4.2753 1.52554C4.09683 1.48526 3.91423 1.46629 3.7313 1.46901C3.64806 1.47126 3.56521 1.48126 3.48383 1.49887L3.47316 1.50101L3.4689 1.50314H3.4657L3.61183 2.01621L3.4657 1.50421C3.39076 1.52538 3.32137 1.56271 3.2624 1.61357C3.20343 1.66443 3.15631 1.72759 3.12436 1.79861C2.80967 2.50336 2.74971 3.29558 2.95476 4.03967C2.42371 4.68325 2.13431 5.49221 2.13663 6.32661C2.13663 7.98314 2.62516 9.09674 3.45823 9.81247C4.0417 10.3138 4.74996 10.5805 5.46036 10.733C5.34857 11.0613 5.30643 11.4094 5.33663 11.7549V12.3927C4.9025 12.4834 4.6017 12.4546 4.3873 12.3842C4.11956 12.2957 3.9137 12.1175 3.71636 11.8615C3.61321 11.7235 3.51708 11.5804 3.42836 11.4327L3.36756 11.3335C3.29079 11.2059 3.21112 11.08 3.12863 10.9559C2.92596 10.6562 2.62516 10.2807 2.13876 10.1527L1.6225 10.0173L1.35156 11.0498L1.86783 11.1853C1.95316 11.2066 2.0641 11.2866 2.2465 11.5543C2.3167 11.66 2.38428 11.7674 2.44916 11.8765L2.5217 11.9938C2.62196 12.1559 2.73716 12.3351 2.8705 12.5101C3.14036 12.8621 3.50836 13.2173 4.0545 13.3975C4.42783 13.5213 4.85236 13.5511 5.33663 13.4765V15.4679C5.33663 15.6094 5.39282 15.745 5.49284 15.8451C5.59286 15.9451 5.72851 16.0013 5.86996 16.0013H10.1366C10.2781 16.0013 10.4137 15.9451 10.5138 15.8451C10.6138 15.745 10.67 15.6094 10.67 15.4679V11.6674C10.67 11.3314 10.655 11.0231 10.5601 10.7362C11.2673 10.5869 11.9702 10.3202 12.5505 9.81887C13.3825 9.09781 13.87 7.97354 13.87 6.30741V6.30634C13.8673 5.47878 13.5778 4.67774 13.0508 4.03967C13.2556 3.29592 13.1956 2.50412 12.8812 1.79967C12.8494 1.72857 12.8026 1.66528 12.7438 1.61424C12.685 1.56319 12.6157 1.52564 12.5409 1.50421L12.3948 2.01621C12.5409 1.50421 12.5398 1.50421 12.5388 1.50421L12.5366 1.50314L12.5324 1.50101L12.5228 1.49887C12.4964 1.49202 12.4697 1.48668 12.4428 1.48287C12.3869 1.47472 12.3306 1.47009 12.2742 1.46901C12.0913 1.46631 11.9087 1.48528 11.7302 1.52554C11.3132 1.61514 10.7382 1.82741 9.98516 2.28927Z" fill="white"/>
</g>
<defs>
<clipPath id="clip0_7539_102">
<rect width="16" height="16" fill="white"/>
</clipPath>
</defs>
</svg>
