<svg width="250" height="161" viewBox="0 0 250 161" fill="none" xmlns="http://www.w3.org/2000/svg">
<path opacity="0.3" d="M48.6943 15.4213C23.3793 25.2238 4.59435 50.0679 0.858617 80.1285C-2.26209 105.459 5.1942 133.446 49.0891 141.419C134.495 156.939 222.535 158.754 242.953 116.894C263.37 75.0336 235.428 8.00293 192.08 3.36363C157.684 -0.326546 98.1472 -3.7206 48.6943 15.4213Z" fill="white"/>
<path d="M157.026 9.57031H93.0477C89.0346 9.57031 85.7812 12.8236 85.7812 16.8368V137.747C85.7812 141.76 89.0346 145.014 93.0477 145.014H157.026C161.039 145.014 164.292 141.76 164.292 137.747V16.8368C164.292 12.8236 161.039 9.57031 157.026 9.57031Z" fill="#333333"/>
<path opacity="0.03" d="M125.031 140.874C128.172 140.874 130.718 138.328 130.718 135.187C130.718 132.046 128.172 129.5 125.031 129.5C121.89 129.5 119.344 132.046 119.344 135.187C119.344 138.328 121.89 140.874 125.031 140.874Z" fill="#333333"/>
<path d="M156.626 21.3203H93.4297V126.779H156.626V21.3203Z" fill="#EFEBFF"/>
<path opacity="0.03" d="M117.8 120.506C118.94 120.506 119.865 119.581 119.865 118.44C119.865 117.3 118.94 116.375 117.8 116.375C116.659 116.375 115.734 117.3 115.734 118.44C115.734 119.581 116.659 120.506 117.8 120.506Z" fill="#333333"/>
<path opacity="0.44" d="M125.034 120.506C126.175 120.506 127.099 119.581 127.099 118.44C127.099 117.3 126.175 116.375 125.034 116.375C123.893 116.375 122.969 117.3 122.969 118.44C122.969 119.581 123.893 120.506 125.034 120.506Z" fill="white"/>
<path opacity="0.03" d="M132.268 120.506C133.409 120.506 134.334 119.581 134.334 118.44C134.334 117.3 133.409 116.375 132.268 116.375C131.128 116.375 130.203 117.3 130.203 118.44C130.203 119.581 131.128 120.506 132.268 120.506Z" fill="#333333"/>
<path opacity="0.03" d="M148.199 32.9531H101.867V72.5049H148.199V32.9531Z" fill="#333333"/>
<path opacity="0.03" d="M134.373 80.125H101.867V83.7468H134.373V80.125Z" fill="#333333"/>
<path opacity="0.03" d="M148.203 80.125H136.57V83.7468H148.203V80.125Z" fill="#333333"/>
<path opacity="0.03" d="M117.053 91.2344H101.867V94.8562H117.053V91.2344Z" fill="#333333"/>
<path opacity="0.03" d="M148.201 91.2344H120.281V94.8562H148.201V91.2344Z" fill="#333333"/>
<path opacity="0.03" d="M136.954 102.352H101.867V105.973H136.954V102.352Z" fill="#333333"/>
<path d="M78.6572 21.3203H15.4609V126.779H78.6572V21.3203Z" fill="#EFEBFF"/>
<path opacity="0.44" d="M39.8231 120.506C40.9637 120.506 41.8884 119.581 41.8884 118.44C41.8884 117.3 40.9637 116.375 39.8231 116.375C38.6825 116.375 37.7578 117.3 37.7578 118.44C37.7578 119.581 38.6825 120.506 39.8231 120.506Z" fill="white"/>
<path opacity="0.03" d="M47.0653 120.506C48.2059 120.506 49.1306 119.581 49.1306 118.44C49.1306 117.3 48.2059 116.375 47.0653 116.375C45.9247 116.375 45 117.3 45 118.44C45 119.581 45.9247 120.506 47.0653 120.506Z" fill="#333333"/>
<path opacity="0.03" d="M54.2997 120.506C55.4403 120.506 56.3649 119.581 56.3649 118.44C56.3649 117.3 55.4403 116.375 54.2997 116.375C53.159 116.375 52.2344 117.3 52.2344 118.44C52.2344 119.581 53.159 120.506 54.2997 120.506Z" fill="#333333"/>
<path opacity="0.03" d="M70.2307 32.9531H23.8984V72.5049H70.2307V32.9531Z" fill="#333333"/>
<path opacity="0.03" d="M56.4039 80.125H23.8984V83.7468H56.4039V80.125Z" fill="#333333"/>
<path opacity="0.03" d="M70.2262 80.125H58.5938V83.7468H70.2262V80.125Z" fill="#333333"/>
<path opacity="0.03" d="M39.0844 91.2344H23.8984V94.8562H39.0844V91.2344Z" fill="#333333"/>
<path opacity="0.03" d="M70.2318 91.2344H42.3125V94.8562H70.2318V91.2344Z" fill="#333333"/>
<path opacity="0.03" d="M58.9855 102.352H23.8984V105.973H58.9855V102.352Z" fill="#333333"/>
<path d="M234.602 21.3203H171.406V126.779H234.602V21.3203Z" fill="#EFEBFF"/>
<path opacity="0.03" d="M195.768 120.506C196.909 120.506 197.834 119.581 197.834 118.44C197.834 117.3 196.909 116.375 195.768 116.375C194.628 116.375 193.703 117.3 193.703 118.44C193.703 119.581 194.628 120.506 195.768 120.506Z" fill="#333333"/>
<path opacity="0.03" d="M203.003 120.506C204.143 120.506 205.068 119.581 205.068 118.44C205.068 117.3 204.143 116.375 203.003 116.375C201.862 116.375 200.938 117.3 200.938 118.44C200.938 119.581 201.862 120.506 203.003 120.506Z" fill="#333333"/>
<path opacity="0.44" d="M210.245 120.506C211.386 120.506 212.31 119.581 212.31 118.44C212.31 117.3 211.386 116.375 210.245 116.375C209.104 116.375 208.18 117.3 208.18 118.44C208.18 119.581 209.104 120.506 210.245 120.506Z" fill="white"/>
<path opacity="0.03" d="M226.176 32.9531H179.844V72.5049H226.176V32.9531Z" fill="#333333"/>
<path opacity="0.03" d="M212.349 80.125H179.844V83.7468H212.349V80.125Z" fill="#333333"/>
<path opacity="0.03" d="M226.171 80.125H214.539V83.7468H226.171V80.125Z" fill="#333333"/>
<path opacity="0.03" d="M195.03 91.2344H179.844V94.8562H195.03V91.2344Z" fill="#333333"/>
<path opacity="0.03" d="M226.177 91.2344H198.258V94.8562H226.177V91.2344Z" fill="#333333"/>
<path opacity="0.03" d="M214.931 102.352H179.844V105.973H214.931V102.352Z" fill="#333333"/>
<path opacity="0.1" d="M146.598 145.04C146.598 144.281 144.988 113.15 146.021 108.518C147.053 103.886 156.53 81.244 154.031 78.6017C151.533 75.9593 142.384 81.973 142.384 81.973C142.384 81.973 144.054 54.7066 140.106 52.7628C136.158 50.819 134.404 58.4348 134.404 58.4348L132.3 88.9357L121.883 144.896L146.598 145.04Z" fill="#333333"/>
<path d="M139.561 113.298C140.89 107.983 142.887 102.797 144.162 97.4288C145.005 93.8752 150.457 79.0234 151.983 74.6499C152.454 73.3059 152.856 71.681 151.945 70.5876C151.637 70.2679 151.254 70.0308 150.831 69.8981C150.408 69.7654 149.958 69.7414 149.523 69.8283C148.645 70.0116 147.836 70.4348 147.184 71.0508C145.666 72.3872 142.864 79.0006 140.814 78.993C138.331 78.993 139.5 72.1594 139.432 70.8458C139.151 65.189 139.568 57.9378 137.359 52.6227C135.719 48.6743 131.649 49.2059 130.692 53.4731C129.736 57.7403 129.773 75.6218 129.773 75.6218C129.773 75.6218 113.889 72.8959 111.178 77.7402C108.468 82.5845 113.046 113.359 113.046 113.359L139.561 113.298Z" fill="#F4A28C"/>
<path d="M141.499 160.499L141.21 111.593L111.529 105.078L99.5781 160.499H141.499Z" fill="#633CFF"/>
<path opacity="0.1" d="M141.493 160.504L141.205 111.597L127.036 108.484L124.5 160.504H141.493Z" fill="#333333"/>
</svg>
