<svg width="16" height="16" viewBox="0 0 16 16" fill="none" xmlns="http://www.w3.org/2000/svg">
<g id="ri:youtube-fill">
<path id="Vector" d="M8.16527 2.66406C8.52127 2.66606 9.41194 2.67473 10.3586 2.71273L10.6946 2.7274C11.6473 2.77206 12.5993 2.8494 13.0719 2.98073C13.7019 3.15806 14.1966 3.67406 14.3639 4.32873C14.6306 5.36873 14.6639 7.39673 14.6679 7.88806L14.6686 7.9894V8.1054C14.6639 8.59673 14.6306 10.6254 14.3639 11.6647C14.1946 12.3214 13.6993 12.8381 13.0719 13.0127C12.5993 13.1441 11.6473 13.2214 10.6946 13.2661L10.3586 13.2814C9.41194 13.3187 8.52127 13.3281 8.16527 13.3294L8.0086 13.3301H7.8386C7.08527 13.3254 3.9346 13.2914 2.93194 13.0127C2.3026 12.8354 1.80727 12.3194 1.63994 11.6647C1.37327 10.6247 1.33994 8.59673 1.33594 8.1054V7.88806C1.33994 7.39673 1.37327 5.36806 1.63994 4.32873C1.80927 3.67206 2.3046 3.1554 2.9326 2.9814C3.9346 2.70206 7.08594 2.66806 7.83927 2.66406H8.16527ZM6.6686 5.66406V10.3307L10.6686 7.9974L6.6686 5.66406Z" fill="white"/>
</g>
</svg>
